<?xml version="1.0" encoding="UTF-8"?><svg id="a" xmlns="http://www.w3.org/2000/svg" viewBox="0 0 337.92 125.81"><g id="b"><g><path d="M0,27.56V.06c111.63,0,223.26,0,334.89-.06,2.47,0,3.03,.55,3.03,3.01-.09,40.04-.09,80.08,0,120.13,0,2.24-.44,2.68-2.7,2.68-111.74-.07-223.48-.06-335.22-.06C0,102.62,0,79.49,0,56.36c.2,.35,.55,.69,.58,1.06,.49,7.28,.92,14.56,1.42,21.84,.78,11.41,2.07,22.8,2.21,34.21,.08,6.09,2.67,8.23,7.98,9.61,4.67,1.21,9.14,2.78,14.01,1.4,2.08,.08,4.13-.52,6.15-.59,11.88-.41,23.67-1.9,35.49-2.87,7.83-.64,15.46-2.28,21.39-8.77,11.02-12.08,9.55-29.78-3.68-39.68-2.06-1.54-1.7-2.16-.45-3.94,3.96-5.65,7.23-11.59,6.59-18.91-.61-6.88-3.05-12.66-8.83-16.89-4.32-3.15-9.22-4.72-14.3-5.92-.71-.99-1.89-.96-2.87-1.36-7.79-3.22-15.85-2.41-23.92-1.67C27.84,25.13,13.92,26.33,0,27.56ZM121.88,100.19c-.45-7.99-.66-16.01-1.48-23.96-.33-3.25-.32-6.48-.57-9.71-.63-8.18-1.29-16.35-1.83-24.53-.37-5.51-.57-11.04-.84-16.56-.04-.76,0-1.57-1.02-1.79-6-3.06-12.27-4.98-19.11-4.45-1.7,.13-2.07,1.14-1.96,2.73,.46,6.29,.79,12.58,1.22,18.87,1.04,15.29,2.1,30.59,3.18,45.88,.55,7.7,1.18,15.39,1.73,23.08,.12,1.73,.81,2.7,2.63,3.18,3.59,.95,7.13,2.1,10.63,3.35,.95,.34,1.42-.09,2.06-.44,1.46,1.08,3.14,.9,4.75,.67,11.86-1.7,23.86-1.9,35.76-3.19,5.3-.57,10.65-.65,15.88-1.77,1.41-.3,3.26,.04,2.93-2.42-.28-2.06-.1-4.34-3.16-4.37-5.27-3.07-10.87-4.83-17.06-4.3-9.88,.85-19.78,1.62-29.65,2.56-2.37,.22-3.66-.51-4.07-2.81ZM330.62,4.48c-.17-.12-.34-.24-.51-.36-10.29-4.42-20.98-3.55-31.72-2.52-13.84,1.33-27.69,2.55-41.54,3.68-5.17,.42-5.2,.27-5.44,5.32-.4,.12-.8,.25-1.21,.37-3.38-.9-6.79-1.72-10.14-2.71-2.89-.86-5.78-1.08-8.76-.81-18.96,1.71-37.91,3.42-56.88,5.03-2.5,.21-3.48,1-3.27,3.61,.75,9.54,1.36,19.1,1.98,28.65,1.16,17.92,2.29,35.84,3.44,53.75q.46,7.14,7.33,9.11c1.79,.52,3.67,.85,5.31,1.67,1.34,.67,2.42,.48,3.64,.05,.68,1.06,1.73,.74,2.67,.65,10.77-1.05,21.51-2.55,32.3-3.05,8.81-.41,17.49-1.9,26.3-2.16,1.5-.05,3.6-.19,3.35-2.57-.27-2.61,1.13-2.9,3.14-2.64,4.23,1.04,8.25,2.88,12.67,3.17,7.33,.45,14.5-1.27,21.79-1.53,4.65-.17,9.31-.78,13.97-1.12,8.34-.6,16.66-1.61,24.99-2.41,1.42-.14,3.25,.11,3.07-1.93-.16-1.85,1.6-4.55-1.83-5.35-.91-1.02-2.34-.98-3.47-1.42-3.43-1.35-7.03-2.93-10.7-2.78-8.05,.34-16.06,1.39-24.1,1.98-5.96,.44-11.88,1.63-17.9,.95-.17-1.07-.41-2.13-.51-3.21-.67-7.2-1.27-14.4-1.97-21.59-.52-5.34,.08-6.57,4.09-7.17,2.46-.37,4.95-.59,7.44-.72,7.28-.37,14.55-.92,21.77-1.9,5.51-.75,5.51-.88,4.69-6.72-7.79-3.91-15.94-5.28-24.67-4.26-4.8,.56-9.67,1.89-14.56,.42-.03-1.96,.18-3.96-.13-5.88-.87-5.47-.74-10.99-1.15-16.48-.33-4.48,.19-4.78,4.58-5.26,4.11-.45,8.22-.9,12.32-1.36,3.5-.39,7.01-.02,10.43-.6,8.82-1.52,17.79-1.29,26.62-2.52,1.34-.19,3.38,.5,3.65-1.28,.29-1.92,1.38-4.29-.94-5.92,0,0-.13-.15-.13-.15Z" style="fill:#fdfdfd;"/><path d="M0,27.56c13.92-1.23,27.84-2.43,41.76-3.7,8.07-.74,16.13-1.54,23.92,1.67,.99,.41,2.17,.38,2.87,1.36-1.34,1.11-2.94,1.23-4.6,1.31-3.93,.18-7.86,.36-11.77,.7-11.95,1.04-23.89,2.21-35.84,3.17-2.1,.17-2.84,.89-2.37,2.76,1.07,4.27,.61,8.65,1.08,12.97,1.05,9.49,1.44,19.05,2.06,28.58,.91,14.09,1.53,28.21,2.8,42.27,.61,6.76-.86,5.88,6.3,5.82-4.87,1.38-9.34-.2-14.01-1.4-5.32-1.37-7.91-3.52-7.98-9.61-.14-11.41-1.43-22.81-2.21-34.21-.5-7.28-.93-14.56-1.42-21.84-.02-.36-.38-.71-.58-1.06,0-9.6,0-19.2,0-28.8Z" style="fill:#978b7c;"/><path d="M26.2,124.48c-7.16,.06-5.68,.93-6.3-5.82-1.28-14.06-1.89-28.18-2.8-42.27-.62-9.53-1.01-19.09-2.06-28.58-.48-4.32-.01-8.71-1.08-12.97-.47-1.87,.27-2.59,2.37-2.76,11.96-.95,23.89-2.13,35.84-3.17,3.92-.34,7.85-.52,11.77-.7,1.66-.08,3.26-.2,4.6-1.31,5.09,1.21,9.99,2.77,14.3,5.92,5.78,4.23,8.22,10.01,8.83,16.89,.65,7.32-2.63,13.26-6.59,18.91-1.25,1.78-1.61,2.4,.45,3.94,13.23,9.9,14.7,27.6,3.68,39.68-5.92,6.49-13.56,8.13-21.39,8.77-11.82,.97-23.61,2.46-35.49,2.87-2.02,.07-4.07,.67-6.15,.59ZM62.64,34.7c-3.77,.45-7.54,1.27-11.32,1.29-9.41,.06-18.65,2.15-28.07,2.08-1.54-.01-2.71,.58-2.54,2.55,.76,8.52,1.45,17.05,2.17,25.58-1.15,5.45,.24,7.09,5.47,6.45,.11-.01,.22-.03,.33-.04,9.23-.84,18.46-1.65,27.68-2.52,5.31-.5,10.76-.51,15.9-1.73,9.68-2.3,15.3-12.62,12.65-22.14-2.49-8.95-12.64-14.2-22.28-11.53ZM26.2,111.36c-1.37,5.31-.49,6.88,3.48,6.51,12.25-1.13,24.5-2.17,36.75-3.29,2.92-.27,5.91-.37,8.72-1.09,9.1-2.31,16.08-10.43,15.14-21.15-.93-10.61-11.36-19.48-23.05-16.44-5.21,.47-10.41,1.16-15.62,1.35-8.71,.32-17.32,1.68-26.01,2.1-1.87,.09-2.11,.71-2.05,2.62,.12,4.01,.7,7.98,.84,11.98,.2,5.84,.97,11.63,1.8,17.41Z" style="fill:#de82d1;"/><path d="M273.28,102.71c-4.42-.3-8.44-2.13-12.67-3.17-1.16-.18-1.72-1.27-3.27-1.31-6.12-.16-12.12,.75-18.17,1.28-11.39,.99-22.79,1.76-34.18,2.7-6.75,.56-6.74,.64-6.73-6.19,1.02,.61,2.14,.44,3.21,.35,6.98-.56,13.96-1.13,20.93-1.75,10.65-.95,21.29-2.64,31.68,1.84,3.27,1.41,3.38,.94,3.08-2.68-.63-7.59-1.12-15.19-1.62-22.79-.97-14.66-1.8-29.33-2.94-43.98-.21-2.75,.29-5.66-1.03-8.3,.54-2.71-.27-5.4-.18-8.1,.24-5.05,.28-4.9,5.45-5.32,13.86-1.13,27.7-2.35,41.54-3.68,10.74-1.03,21.43-1.9,31.72,2.52,.17,.12,.34,.24,.51,.36,0,0,.13,.15,.13,.15-2.14,1.24-4.5,.44-6.74,.69-14.85,1.63-29.75,2.8-44.65,3.93-3.58,.27-7.14,.85-10.72,1.2-1.36,.14-1.75,.47-1.59,2.03,.69,7.12,1.29,14.25,1.65,21.4,.47,9.21,1.18,18.39,1.9,27.58,1.08,13.74,1.81,27.5,2.69,41.25Z" style="fill:#978b7c;"/><path d="M192.85,109.32c-1.22,.43-2.3,.62-3.64-.05-1.64-.82-3.52-1.16-5.31-1.67q-6.85-1.98-7.33-9.11c-1.15-17.92-2.28-35.84-3.44-53.75-.62-9.55-1.23-19.11-1.98-28.65-.21-2.61,.77-3.4,3.27-3.61,18.97-1.6,37.92-3.32,56.88-5.03,2.99-.27,5.88-.04,8.76,.81,3.35,.99,6.76,1.82,10.14,2.71-.15,.88-.84,.8-1.49,.89-7.46,1.05-14.97,1.39-22.47,2.01-12.28,1.02-24.54,2.21-36.82,3.14-2.56,.19-3.33,1.11-2.85,3.43,.15,.74,.41,1.48,.45,2.23,.6,13,1.63,25.97,2.61,38.95,.85,11.25,1.1,22.54,2.17,33.76,.45,4.64-.05,9.35,1.05,13.93Z" style="fill:#978b7c;"/><path d="M192.85,109.32c-1.1-4.58-.6-9.29-1.05-13.93-1.08-11.22-1.32-22.52-2.17-33.76-.98-12.98-2.01-25.95-2.61-38.95-.03-.75-.29-1.49-.45-2.23-.48-2.32,.29-3.24,2.85-3.43,12.28-.93,24.54-2.12,36.82-3.14,7.49-.62,15.01-.96,22.47-2.01,.66-.09,1.35-.01,1.49-.89,.4-.12,.81-.24,1.21-.37-.09,2.71,.72,5.39,.18,8.11-3.17,.16-6.35,.22-9.51,.49-9.11,.78-18.22,1.62-27.32,2.47-5.97,.56-11.92,1.32-17.89,1.72-2.9,.19-3.4,1.64-3.24,4.06,.5,7.66,.92,15.33,1.36,23,0,.65-.02,1.31,.01,1.96,.31,5.25,.52,5.59,5.31,5.2,8.78-.72,17.53-1.72,26.31-2.42,2.55-.2,5.22-.82,7.73,.41,.21,.84,.45,1.68,.61,2.53,.44,2.31-.41,3.43-2.92,3.47-2.6,.04-5.2,.44-7.8,.65-8.56,.69-17.11,1.37-25.67,2.05-1.29,.1-2.44,.41-2.42,2,.02,2.28,.02,4.56,.2,6.83,.6,7.63,1.28,15.26,1.93,22.89-.02,6.82-.02,6.75,6.73,6.19,11.39-.95,22.79-1.71,34.18-2.7,6.05-.53,12.05-1.44,18.17-1.28,1.55,.04,2.1,1.13,3.27,1.31-2.01-.26-3.42,.02-3.14,2.64,.25,2.38-1.84,2.52-3.35,2.57-8.8,.26-17.49,1.75-26.3,2.16-10.79,.51-21.54,2-32.3,3.05-.94,.09-1.99,.41-2.67-.65Z" style="fill:#de82d1;"/><path d="M273.28,102.71c-.88-13.75-1.61-27.51-2.69-41.25-.72-9.19-1.43-18.37-1.9-27.58-.36-7.14-.96-14.28-1.65-21.4-.15-1.55,.23-1.89,1.59-2.03,3.58-.35,7.14-.93,10.72-1.2,14.9-1.13,29.79-2.3,44.65-3.93,2.25-.25,4.6,.56,6.74-.69,2.33,1.63,1.23,4,.94,5.92-.27,1.78-2.31,1.1-3.65,1.28-8.83,1.23-17.8,1-26.62,2.52-3.42,.59-6.94,.21-10.43,.6-4.1,.46-8.21,.91-12.32,1.36-4.39,.48-4.92,.78-4.58,5.26,.41,5.49,.28,11.02,1.15,16.48,.31,1.92,.1,3.92,.13,5.88,.2,1.82,.44,3.64,.6,5.47,.09,.99,.32,1.85,1.53,1.46,2.25-.72,4.57-.27,6.85-.52,10.07-1.11,20.14-2.16,30.27-2.56,.83,5.85,.82,5.98-4.69,6.72-7.22,.98-14.49,1.54-21.77,1.9-2.49,.13-4.98,.35-7.44,.72-4.01,.6-4.61,1.83-4.09,7.17,.7,7.19,1.3,14.39,1.97,21.59,.1,1.07,.34,2.14,.51,3.21-1.36,5.58-.1,7.27,5.29,6.42,2.51-.4,5-.38,7.5-.59,12.15-1.05,24.3-2.1,36.44-3.27,2.33-.22,4.75-.21,6.95-1.28,3.43,.8,1.66,3.5,1.83,5.35,.18,2.04-1.66,1.79-3.07,1.93-8.33,.8-16.64,1.81-24.99,2.41-4.66,.34-9.32,.95-13.97,1.12-7.29,.26-14.46,1.99-21.79,1.53Z" style="fill:#de82d1;"/><path d="M116.51,115.83c-.64,.35-1.1,.78-2.06,.44-3.5-1.24-7.04-2.39-10.63-3.35-1.81-.48-2.5-1.45-2.63-3.18-.56-7.7-1.19-15.39-1.73-23.08-1.08-15.29-2.14-30.58-3.18-45.88-.43-6.29-.76-12.58-1.22-18.87-.12-1.58,.26-2.6,1.96-2.73,6.84-.52,13.11,1.4,19.11,4.45-5.73-.16-6.17-.1-5.35,5.58,.69,4.75,.55,9.51,1.01,14.26,1.12,11.43,1.38,22.94,2.21,34.41,.27,3.67,.43,7.36,.74,11.03,.77,8.96,1.43,17.93,1.77,26.92Z" style="fill:#978b7c;"/><path d="M116.51,115.83c-.34-8.99-1-17.95-1.77-26.92-.31-3.67-.47-7.35-.74-11.03-.83-11.46-1.09-22.97-2.21-34.41-.46-4.74-.32-9.5-1.01-14.26-.82-5.68-.38-5.74,5.35-5.58,1.02,.21,.98,1.02,1.02,1.79,.28,5.52,.48,11.05,.84,16.56,.55,8.18,1.2,16.35,1.83,24.53,.25,3.23,.24,6.46,.57,9.71,.82,7.95,1.02,15.97,1.48,23.96,.21,2.05,.71,4.12,.55,6.14-.26,3.25,1.49,3.24,3.84,2.94,3.67-.47,7.36-.9,11.05-1.2,8.92-.72,17.88-1.1,26.75-2.19,2.85-.35,5.92,.47,8.6-1.15,3.06,.02,2.88,2.31,3.16,4.37,.33,2.47-1.52,2.12-2.93,2.42-5.24,1.12-10.59,1.2-15.88,1.77-11.9,1.29-23.9,1.49-35.76,3.19-1.61,.23-3.29,.42-4.75-.67Z" style="fill:#de82d1;"/><path d="M335.27,90.37c-2.19,1.07-4.62,1.05-6.95,1.28-12.14,1.17-24.29,2.22-36.44,3.27-2.5,.22-4.98,.2-7.5,.59-5.39,.85-6.65-.83-5.29-6.42,6.02,.68,11.94-.51,17.9-.95,8.04-.59,16.05-1.63,24.1-1.98,3.66-.16,7.27,1.43,10.7,2.78,1.13,.44,2.56,.4,3.47,1.42Z" style="fill:#978b7c;"/><path d="M172.67,104.74c-2.68,1.62-5.76,.8-8.6,1.15-8.87,1.09-17.83,1.47-26.75,2.19-3.69,.3-7.37,.73-11.05,1.2-2.35,.3-4.1,.31-3.84-2.94,.16-2.02-.34-4.09-.55-6.14,.41,2.3,1.7,3.04,4.07,2.81,9.88-.94,19.77-1.7,29.65-2.56,6.2-.54,11.79,1.23,17.06,4.3Z" style="fill:#978b7c;"/><path d="M314.6,47.79c-10.13,.4-20.2,1.45-30.27,2.56-2.28,.25-4.59-.2-6.85,.52-1.22,.39-1.45-.47-1.53-1.46-.16-1.83-.39-3.65-.6-5.47,4.89,1.47,9.77,.14,14.56-.42,8.73-1.02,16.88,.35,24.67,4.26Z" style="fill:#978b7c;"/><path d="M330.62,4.48c-.17-.12-.34-.24-.51-.36,.17,.12,.34,.24,.51,.36Z" style="fill:#de82d1;"/><path d="M26.2,111.36c-.84-5.78-1.61-11.56-1.8-17.41-.14-4-.72-7.96-.84-11.98-.06-1.91,.18-2.53,2.05-2.62,8.69-.41,17.3-1.78,26.01-2.1,5.22-.19,10.42-.88,15.62-1.35,2.09,.48,3.32,2.05,4.43,3.67,7.56,11.09,.53,26.78-13.11,29.18-3.01,.53-6.08,.81-9.13,.99-7.75,.46-15.43,1.86-23.23,1.61Z" style="fill:#fdfdfd;"/><path d="M22.89,66.2c-.72-8.53-1.41-17.05-2.17-25.58-.17-1.96,1-2.56,2.54-2.55,9.41,.07,18.65-2.02,28.07-2.08,3.78-.02,7.55-.84,11.32-1.29,2.78,.23,4.24,2.14,5.31,4.35,5.05,10.42-.63,22.08-12.06,24.6-5.89,1.3-11.96,1.34-17.95,1.84-5,.42-9.99,1.42-15.05,.71Z" style="fill:#fdfdfd;"/><path d="M26.2,111.36c7.8,.25,15.48-1.15,23.23-1.61,3.05-.18,6.12-.46,9.13-.99,13.64-2.4,20.67-18.09,13.11-29.18-1.1-1.62-2.33-3.18-4.43-3.67,11.69-3.04,22.12,5.83,23.05,16.44,.94,10.72-6.04,18.84-15.14,21.15-2.82,.72-5.8,.82-8.72,1.09-12.25,1.11-24.5,2.16-36.75,3.29-3.97,.37-4.85-1.2-3.48-6.51Z" style="fill:#978b7c;"/><path d="M22.89,66.2c5.06,.71,10.05-.29,15.05-.71,5.99-.5,12.06-.54,17.95-1.84,11.43-2.52,17.11-14.17,12.06-24.6-1.07-2.21-2.53-4.12-5.31-4.35,9.64-2.67,19.79,2.58,22.28,11.53,2.65,9.51-2.97,19.84-12.65,22.14-5.15,1.22-10.59,1.23-15.9,1.73-9.23,.86-18.46,1.68-27.68,2.52-.11,0-.22,.03-.33,.04-5.23,.64-6.63-1.01-5.47-6.45Z" style="fill:#978b7c;"/><path d="M194.98,50.45c-.45-7.67-.87-15.34-1.36-23-.16-2.42,.34-3.86,3.24-4.06,5.98-.4,11.93-1.16,17.89-1.72,9.1-.85,18.21-1.69,27.32-2.47,3.16-.27,6.34-.33,9.51-.49,1.32,2.64,.82,5.55,1.03,8.3,1.14,14.65,1.98,29.32,2.94,43.98,.5,7.6,.98,15.2,1.62,22.79,.3,3.62,.19,4.09-3.08,2.68-10.39-4.48-21.03-2.78-31.68-1.84-6.97,.62-13.95,1.19-20.93,1.75-1.08,.09-2.2,.26-3.21-.35-.65-7.63-1.33-15.26-1.93-22.89-.18-2.27-.18-4.55-.2-6.83-.01-1.59,1.14-1.9,2.42-2,8.56-.68,17.12-1.36,25.67-2.05,2.6-.21,5.2-.61,7.8-.65,2.51-.04,3.36-1.16,2.92-3.47-.16-.85-.41-1.69-.61-2.53-.2-.36-.3-.92-.6-1.05-5.29-2.37-10.75-4.56-16.58-4.52-5.87,.04-11.74,.92-17.61,1.51-1.7,.17-3.27,.22-4.57-1.08Z" style="fill:#fdfdfd;"/><path d="M194.98,50.45c1.3,1.3,2.87,1.25,4.57,1.08,5.86-.59,11.73-1.47,17.61-1.51,5.83-.04,11.29,2.16,16.58,4.52,.3,.13,.41,.69,.6,1.05-2.51-1.23-5.18-.62-7.73-.41-8.78,.7-17.53,1.7-26.31,2.42-4.79,.39-5,.05-5.31-5.2-.04-.65-.01-1.3-.01-1.96Z" style="fill:#978b7c;"/></g></g></svg>